<svg width="50" height="50" viewBox="0 0 50 50" fill="none" xmlns="http://www.w3.org/2000/svg">
<path d="M25 10.1639C34.5226 10.1641 42.2422 16.8065 42.2422 24.9999C42.2422 33.1934 34.5226 39.8356 25 39.8358C21.695 39.8358 18.6067 39.0355 15.9834 37.6483C14.8354 38.6505 13.3424 39.2583 11.8184 39.3192C12.6045 38.2968 13.0536 37.0214 13.0957 35.7333C9.80635 33.0317 7.75684 29.2217 7.75684 24.9999C7.75687 16.8064 15.4773 10.1639 25 10.1639ZM8.24902 19.1268C7.37788 20.9923 6.93654 22.9667 6.93652 24.9999C6.93652 27.0349 7.37766 29.0084 8.24902 30.8729C5.92109 30.1075 4.22656 28.5922 4.22656 24.9999C4.22659 21.5924 5.92091 19.8923 8.24902 19.1268ZM41.75 19.1268C44.078 19.8923 45.7724 21.5926 45.7725 24.9999C45.7725 28.5922 44.078 30.1074 41.75 30.8729C42.6214 29.0084 43.0625 27.0349 43.0625 24.9999C43.0625 22.9667 42.6211 20.9923 41.75 19.1268ZM35.7158 20.5702C35.0747 19.86 34.1864 20.5702 33.2295 20.5702H16.7695C15.8239 20.5702 14.9187 19.8699 14.2832 20.5702C12.4838 22.553 11.4111 22.2891 11.4111 24.9999C11.4111 27.7107 12.4839 27.769 14.2832 29.7518C14.9187 30.452 16.077 30.329 17.0225 30.329H33.5361C34.4815 30.329 35.0804 31.029 35.7158 30.329C37.5151 28.346 38.5879 27.7108 38.5879 24.9999C38.5879 22.3003 37.5019 22.5491 35.7158 20.5702Z" fill="#2FBF71"/>
<path d="M35.1244 31.1907H14.9155C12.0772 31.1907 9.77637 28.8898 9.77637 26.0515V24.4535C9.77637 21.6152 12.0772 19.3143 14.9155 19.3143H35.1244C37.9627 19.3143 40.2636 21.6152 40.2636 24.4535V26.0515C40.2636 28.8898 37.9627 31.1907 35.1244 31.1907Z" fill="white"/>
<path d="M26.6416 26.4946C26.9631 26.4946 27.1992 26.8022 27.1087 27.1104C26.8426 28.017 26.0049 28.679 25.0121 28.679C24.0197 28.679 23.1821 28.017 22.916 27.1104C22.8254 26.8022 23.062 26.4946 23.3831 26.4946H26.6416Z" fill="#1E2A38"/>
<path d="M18.2859 25.4023C18.2859 26.6087 17.3078 27.5867 16.1017 27.5867C14.895 27.5867 13.917 26.6087 13.917 25.4023C13.917 24.1959 14.895 23.2179 16.1017 23.2179C17.3078 23.2179 18.2859 24.1959 18.2859 25.4023Z" fill="#1E2A38"/>
<path d="M16.6387 25.7676C16.773 25.7676 16.8818 25.8766 16.8818 26.0107C16.8818 26.145 16.7731 26.2539 16.6387 26.2539C16.5044 26.2537 16.3965 26.1449 16.3965 26.0107C16.3966 25.8767 16.5045 25.7678 16.6387 25.7676ZM15.5186 24.1611C15.9091 24.1612 16.2256 24.4777 16.2256 24.8682C16.2255 25.2585 15.9091 25.5751 15.5186 25.5752C15.128 25.5752 14.8116 25.2585 14.8115 24.8682C14.8115 24.4777 15.128 24.1611 15.5186 24.1611Z" fill="white"/>
<path d="M14.5939 27.9517C14.4667 27.9517 14.3436 27.8849 14.2766 27.7664C14.1775 27.5914 14.24 27.3688 14.4151 27.2697C14.4427 27.254 15.1062 26.8851 16.1015 26.8851C17.0963 26.8851 17.7598 27.254 17.7878 27.2697C17.9625 27.3688 18.0241 27.5909 17.9254 27.766C17.8263 27.9405 17.6054 28.0024 17.4303 27.9044C17.4194 27.8985 16.8903 27.6134 16.1015 27.6134C15.3081 27.6134 14.7776 27.9016 14.7722 27.9045C14.7156 27.9365 14.6541 27.9517 14.5939 27.9517Z" fill="#1E2A38"/>
<path d="M36.1081 25.4025C36.1081 26.6088 35.1301 27.5868 33.9237 27.5868C32.7173 27.5868 31.7393 26.6088 31.7393 25.4025C31.7393 24.1961 32.7173 23.2181 33.9237 23.2181C35.1301 23.2181 36.1081 24.1961 36.1081 25.4025Z" fill="#1E2A38"/>
<path d="M34.4619 25.7675C34.5955 25.7675 34.705 25.8765 34.7051 26.0106C34.7051 26.1448 34.5955 26.2538 34.4619 26.2538C34.3275 26.2536 34.2188 26.1447 34.2188 26.0106C34.2188 25.8767 34.3275 25.7677 34.4619 25.7675ZM33.3418 24.161C33.7317 24.1612 34.0488 24.4777 34.0488 24.868C34.0488 25.2583 33.7317 25.5749 33.3418 25.5751C32.9512 25.5751 32.6348 25.2584 32.6348 24.868C32.6348 24.4776 32.9512 24.161 33.3418 24.161Z" fill="white"/>
<path d="M32.4165 27.9515C32.2898 27.9515 32.1667 27.8848 32.0997 27.7663C32.0008 27.5913 32.0632 27.3686 32.2383 27.2696C32.2661 27.2538 32.9295 26.885 33.9241 26.885C34.9197 26.885 35.5831 27.2538 35.6104 27.2696C35.786 27.3686 35.8473 27.5908 35.7484 27.7659C35.6495 27.9405 35.428 28.0022 35.2534 27.9043C35.2426 27.8984 34.7136 27.6133 33.9241 27.6133C33.1309 27.6133 32.6004 27.9014 32.5952 27.9044C32.5391 27.9363 32.4773 27.9515 32.4165 27.9515Z" fill="#1E2A38"/>
<path d="M25.3133 13.3585C25.3586 14.295 26.0689 15.0587 27.1051 15.3243C25.9947 15.5709 25.0651 16.32 24.7488 17.2533C24.7035 16.3168 23.9932 15.5531 22.957 15.2875C24.0674 15.041 24.9971 14.2918 25.3133 13.3585Z" fill="white"/>
</svg>
