<svg width="16" height="16" viewBox="0 0 16 16" fill="none" xmlns="http://www.w3.org/2000/svg">
<path fill-rule="evenodd" clip-rule="evenodd" d="M4.66652 6C4.53469 6.00003 4.40583 6.03914 4.29622 6.1124C4.18661 6.18565 4.10119 6.28976 4.05074 6.41156C4.00029 6.53336 3.98709 6.66739 4.0128 6.79669C4.03851 6.92599 4.10199 7.04477 4.19519 7.138L7.52852 10.4713C7.65354 10.5963 7.82308 10.6665 7.99986 10.6665C8.17663 10.6665 8.34617 10.5963 8.47119 10.4713L11.8045 7.138C11.8977 7.04477 11.9612 6.92599 11.9869 6.79669C12.0126 6.66739 11.9994 6.53336 11.949 6.41156C11.8985 6.28976 11.8131 6.18565 11.7035 6.1124C11.5939 6.03914 11.465 6.00003 11.3332 6H4.66652Z" fill="#1E2A38"/>
</svg>
