<svg width="16" height="16" viewBox="0 0 16 16" fill="none" xmlns="http://www.w3.org/2000/svg">
<path fill-rule="evenodd" clip-rule="evenodd" d="M4.66652 10.6665C4.53469 10.6665 4.40583 10.6274 4.29622 10.5541C4.18661 10.4808 4.10119 10.3767 4.05074 10.2549C4.00029 10.1331 3.98709 9.99912 4.0128 9.86982C4.03851 9.74051 4.10199 9.62174 4.19519 9.5285L7.52852 6.19517C7.65354 6.07019 7.82308 5.99998 7.99986 5.99998C8.17663 5.99998 8.34617 6.07019 8.47119 6.19517L11.8045 9.5285C11.8977 9.62174 11.9612 9.74051 11.9869 9.86982C12.0126 9.99912 11.9994 10.1331 11.949 10.2549C11.8985 10.3767 11.8131 10.4808 11.7035 10.5541C11.5939 10.6274 11.465 10.6665 11.3332 10.6665H4.66652Z" fill="#1E2A38"/>
</svg>
