<svg width="237" height="70" viewBox="0 0 237 70" fill="none" xmlns="http://www.w3.org/2000/svg">
<path d="M52.7837 12.6067C50.7631 12.834 48.6667 13.8193 46.5451 15.4614C43.4131 13.8193 39.9275 12.9351 36.2904 12.8846C30.1781 12.8846 24.4445 15.1077 20.1255 19.3267C17.9824 21.4111 16.274 23.9 15.0991 26.6493C13.9242 29.3986 13.3061 32.3537 13.2806 35.3435C13.2397 38.1981 13.7367 41.0349 14.7456 43.7056C12.043 46.7372 9.51722 53.0024 12.6492 56.5393C13.9626 58.0045 15.8317 58.6614 18.0796 58.6614C24.9244 58.6614 35.2801 52.5982 43.994 44.8677C55.5873 34.5856 64.5538 21.0698 59.3002 15.133C58.5034 14.2205 57.4949 13.5175 56.3631 13.0859C55.2313 12.6542 54.0109 12.507 52.809 12.6572L52.7837 12.6067ZM16.4126 53.154C15.8569 52.5224 16.4126 50.4256 17.3976 48.6572C18.1049 49.6424 18.8626 50.6024 19.7214 51.4866C20.277 52.0424 20.858 52.5477 21.4389 53.0529C18.7868 53.8614 16.9935 53.8108 16.4126 53.1287V53.154ZM54.9306 23.0909C54.1477 21.9035 53.2889 20.7414 52.2786 19.7056C51.8492 19.2761 51.4198 18.8719 50.9652 18.493C51.9502 17.9372 52.7332 17.6845 53.2889 17.6088C54.1982 17.5077 54.8801 17.7603 55.4611 18.4172C56.0167 19.0488 55.8904 20.7161 54.9054 23.0656L54.9306 23.0909ZM46.4946 47.6719C42.3523 51.3603 37.225 55.1498 32.0471 57.9793C33.2595 58.1814 34.4719 58.3329 35.7348 58.3329H36.0379C42.0239 58.3329 47.6312 56.0593 51.8997 51.8908C56.2441 47.6719 58.6688 41.9877 58.7446 35.874C58.7446 35.293 58.7193 34.7372 58.694 34.1561C55.4611 38.8045 51.1925 43.453 46.4946 47.6466V47.6719Z" fill="#EAF2FF"/>
<path d="M20.4064 35.6752C20.4064 37.4262 20.7841 39.1242 21.53 40.7285C19.5371 40.0699 18.0868 38.7661 18.0868 35.6752C18.0868 32.7432 19.5371 31.2805 21.5302 30.6219C20.7844 32.227 20.4064 33.9258 20.4064 35.6752Z" fill="#1E2A38"/>
<path d="M35.952 22.9077C44.1496 22.9077 50.7957 28.6258 50.7958 35.6792C50.7958 36.5707 50.6882 37.4408 50.4862 38.2808C49.3637 39.5288 48.1336 40.8547 47.0663 41.9019C44.9103 44.0171 41.5677 46.8162 40.2509 47.9058C38.8901 48.2595 37.4469 48.4507 35.952 48.4507C33.107 48.4506 30.4485 47.7621 28.1903 46.5679C27.2021 47.4305 25.9172 47.9529 24.6053 48.0054C25.2819 47.1253 25.6687 46.0281 25.705 44.9194C22.8733 42.5938 21.1093 39.3136 21.1093 35.6792C21.1094 28.6259 27.7546 22.9079 35.952 22.9077ZM45.1776 31.8657C44.6257 31.2545 43.8607 31.8657 43.037 31.8657H28.8671C28.0533 31.8656 27.2744 31.2634 26.7274 31.8657C25.1785 33.5726 24.2548 33.3457 24.2548 35.6792C24.2548 38.0129 25.1784 38.063 26.7274 39.77C27.2745 40.3727 28.2719 40.2671 29.0858 40.2671H43.3016C44.1153 40.2672 44.6307 40.8696 45.1776 40.2671C46.7266 38.5601 47.6493 38.0129 47.6493 35.6792C47.6492 33.3553 46.7152 33.5692 45.1776 31.8657Z" fill="#1E2A38"/>
<path d="M50.3726 30.6235C52.0981 31.191 53.4177 32.3555 53.7515 34.5405C53.3825 34.9756 52.4915 36.0198 51.396 37.2593C51.4658 36.7383 51.5024 36.2111 51.5024 35.6792C51.5024 33.9291 51.1224 32.2293 50.3726 30.6235Z" fill="#1E2A38"/>
<path d="M44.6527 40.9971H27.2523C24.8084 40.9971 22.8273 39.0217 22.8273 36.585V35.2131C22.8273 32.7763 24.8084 30.801 27.2523 30.801H44.6527C47.0966 30.801 49.0777 32.7763 49.0777 35.2131V36.585C49.0777 39.0217 47.0966 40.9971 44.6527 40.9971Z" fill="white"/>
<path d="M37.3469 36.9724C37.6221 36.9724 37.8242 37.2369 37.7467 37.5019C37.5189 38.2814 36.8019 38.8506 35.952 38.8506C35.1026 38.8506 34.3856 38.2814 34.1578 37.5019C34.0803 37.2369 34.2828 36.9724 34.5576 36.9724H37.3469Z" fill="#1E2A38"/>
<path d="M30.1722 36.0263C30.1722 37.0649 29.3302 37.9067 28.2919 37.9067C27.2532 37.9067 26.4113 37.0649 26.4113 36.0263C26.4113 34.9878 27.2532 34.1459 28.2919 34.1459C29.3302 34.1459 30.1722 34.9878 30.1722 36.0263Z" fill="#1E2A38"/>
<path d="M28.7545 36.3413C28.8702 36.3413 28.9635 36.4348 28.9635 36.5503C28.9635 36.6659 28.8702 36.7593 28.7545 36.7593C28.6388 36.7593 28.5455 36.6658 28.5455 36.5503C28.5456 36.4348 28.6388 36.3413 28.7545 36.3413ZM27.7897 34.9575C28.1259 34.9575 28.3981 35.2308 28.3981 35.5669C28.3979 35.9028 28.1258 36.1753 27.7897 36.1753C27.4536 36.1752 27.1815 35.9028 27.1813 35.5669C27.1813 35.2308 27.4535 34.9576 27.7897 34.9575Z" fill="white"/>
<path d="M26.9943 38.2207C26.8849 38.2207 26.7789 38.1633 26.7212 38.0612C26.6359 37.9106 26.6897 37.7189 26.8405 37.6336C26.8642 37.6201 27.4354 37.3025 28.2922 37.3025C29.1485 37.3025 29.7197 37.6201 29.7438 37.6336C29.8942 37.7189 29.9472 37.9102 29.8623 38.0609C29.777 38.2111 29.5868 38.2643 29.4361 38.18C29.4267 38.175 28.9712 37.9295 28.2922 37.9295C27.6092 37.9295 27.1525 38.1776 27.1479 38.1801C27.0992 38.2076 27.0462 38.2207 26.9943 38.2207Z" fill="#1E2A38"/>
<path d="M45.5153 36.0264C45.5153 37.0648 44.6734 37.9067 43.6349 37.9067C42.5963 37.9067 41.7544 37.0648 41.7544 36.0264C41.7544 34.9878 42.5963 34.1459 43.6349 34.1459C44.6734 34.1459 45.5153 34.9878 45.5153 36.0264Z" fill="#1E2A38"/>
<path d="M44.0972 36.3413C44.2122 36.3413 44.3062 36.4348 44.3062 36.5503C44.3061 36.6658 44.2122 36.7593 44.0972 36.7593C43.9815 36.7591 43.8882 36.6657 43.8882 36.5503C43.8882 36.4349 43.9815 36.3415 44.0972 36.3413ZM43.1333 34.9575C43.4689 34.9578 43.7417 35.2299 43.7417 35.5659C43.7417 35.9018 43.4689 36.1741 43.1333 36.1743C42.7971 36.1743 42.5249 35.902 42.5249 35.5659C42.5249 35.2298 42.797 34.9575 43.1333 34.9575Z" fill="white"/>
<path d="M42.3369 38.2207C42.2279 38.2207 42.1219 38.1633 42.0643 38.0612C41.9791 37.9106 42.0328 37.7189 42.1835 37.6336C42.2075 37.6201 42.7786 37.3025 43.6347 37.3025C44.4918 37.3025 45.0629 37.6201 45.0864 37.6336C45.2376 37.7189 45.2904 37.9102 45.2052 38.0609C45.1201 38.2112 44.9294 38.2643 44.7791 38.18C44.7698 38.1749 44.3145 37.9295 43.6347 37.9295C42.9519 37.9295 42.4952 38.1776 42.4908 38.1801C42.4425 38.2076 42.3893 38.2207 42.3369 38.2207Z" fill="#1E2A38"/>
<path d="M35.9672 25.2437C36.1543 26.2779 37.0089 27.112 38.1254 27.3921C37.0085 27.6722 36.154 28.5068 35.9672 29.5415C35.7802 28.5066 34.9262 27.672 33.809 27.3921C34.926 27.1123 35.7799 26.2782 35.9672 25.2437Z" fill="white"/>
<path d="M71.2284 37.4327V17.6065H76.943V22.2715H77.0596V37.4327H71.2284ZM84.5625 37.4327V24.8372C84.5625 23.8265 84.2903 23.0879 83.7461 22.6214C83.2278 22.129 82.4891 21.8828 81.5302 21.8828C80.7009 21.8828 79.9364 22.0771 79.2366 22.4659C78.5628 22.8287 78.0315 23.36 77.6427 24.0597C77.254 24.7336 77.0596 25.537 77.0596 26.47L76.5542 21.9994C77.2022 20.5481 78.1352 19.3948 79.3532 18.5395C80.5972 17.6584 82.0874 17.2178 83.8238 17.2178C85.8972 17.2178 87.504 17.8009 88.6443 18.9671C89.8106 20.1334 90.3937 21.5977 90.3937 23.36V37.4327H84.5625ZM97.8965 37.4327V24.8372C97.8965 23.8265 97.6244 23.0879 97.0802 22.6214C96.5618 22.129 95.8232 21.8828 94.8643 21.8828C94.035 21.8828 93.2704 22.0771 92.5707 22.4659C91.8969 22.8287 91.3656 23.36 90.9768 24.0597C90.5881 24.7336 90.3937 25.537 90.3937 26.47L89.4996 21.9994C90.1475 20.5481 91.1064 19.3948 92.3763 18.5395C93.6721 17.6584 95.2271 17.2178 97.0413 17.2178C99.1924 17.2178 100.838 17.8268 101.978 19.0449C103.145 20.2371 103.728 21.805 103.728 23.7487V37.4327H97.8965Z" fill="#EAF2FF"/>
<path d="M117.497 37.8214C115.294 37.8214 113.376 37.3938 111.744 36.5386C110.111 35.6574 108.841 34.4393 107.934 32.8843C107.053 31.3293 106.612 29.5411 106.612 27.5196C106.612 25.4722 107.053 23.684 107.934 22.1549C108.841 20.5999 110.098 19.3948 111.705 18.5395C113.312 17.6584 115.178 17.2178 117.303 17.2178C119.35 17.2178 121.125 17.6324 122.629 18.4618C124.132 19.2911 125.298 20.4444 126.127 21.9216C126.957 23.3989 127.371 25.1353 127.371 27.1309C127.371 27.5455 127.358 27.9343 127.332 28.2971C127.306 28.634 127.268 28.958 127.216 29.269H110.033V25.4204H122.512L121.501 26.1201C121.501 24.5133 121.112 23.3341 120.335 22.5825C119.583 21.805 118.547 21.4163 117.225 21.4163C115.696 21.4163 114.504 21.9346 113.648 22.9713C112.819 24.0079 112.404 25.5629 112.404 27.6362C112.404 29.6577 112.819 31.1609 113.648 32.1457C114.504 33.1305 115.774 33.623 117.458 33.623C118.391 33.623 119.195 33.4675 119.868 33.1565C120.542 32.8455 121.048 32.3401 121.385 31.6403H126.866C126.218 33.5582 125.104 35.0743 123.523 36.1887C121.968 37.2772 119.959 37.8214 117.497 37.8214Z" fill="#EAF2FF"/>
<path d="M130.49 37.4327V17.6065H136.204V22.2715H136.321V37.4327H130.49ZM136.321 27.092L135.816 22.3881C136.282 20.7036 137.047 19.4207 138.109 18.5395C139.172 17.6584 140.494 17.2178 142.074 17.2178C142.567 17.2178 142.93 17.2696 143.163 17.3733V22.8158C143.033 22.7639 142.852 22.738 142.619 22.738C142.385 22.7121 142.1 22.6991 141.763 22.6991C139.897 22.6991 138.524 23.036 137.643 23.7099C136.762 24.3578 136.321 25.4852 136.321 27.092Z" fill="#EAF2FF"/>
<path d="M154.655 37.8214C152.582 37.8214 150.755 37.3809 149.174 36.4997C147.593 35.6185 146.349 34.4005 145.442 32.8455C144.561 31.2905 144.12 29.5152 144.12 27.5196C144.12 25.524 144.561 23.7487 145.442 22.1938C146.349 20.6388 147.593 19.4207 149.174 18.5395C150.755 17.6584 152.582 17.2178 154.655 17.2178C156.392 17.2178 157.947 17.5417 159.32 18.1896C160.72 18.8116 161.86 19.6798 162.741 20.7943C163.648 21.9087 164.231 23.2175 164.491 24.7206H158.854C158.569 23.7617 158.05 23.036 157.299 22.5436C156.573 22.0512 155.718 21.805 154.733 21.805C153.8 21.805 152.984 22.0383 152.284 22.5048C151.61 22.9713 151.092 23.6321 150.729 24.4874C150.366 25.3426 150.185 26.3534 150.185 27.5196C150.185 28.6859 150.366 29.6966 150.729 30.5518C151.092 31.4071 151.61 32.068 152.284 32.5345C152.984 33.001 153.8 33.2342 154.733 33.2342C155.718 33.2342 156.573 32.988 157.299 32.4956C158.05 32.0032 158.569 31.2775 158.854 30.3186H164.491C164.231 31.8218 163.648 33.1305 162.741 34.245C161.86 35.3594 160.72 36.2405 159.32 36.8884C157.947 37.5104 156.392 37.8214 154.655 37.8214Z" fill="#EAF2FF"/>
<path d="M173.501 37.8214C172.102 37.8214 170.897 37.5234 169.886 36.9273C168.901 36.3053 168.149 35.489 167.631 34.4782C167.113 33.4415 166.854 32.2883 166.854 31.0183V17.6065H172.685V29.891C172.685 30.9795 172.957 31.7958 173.501 32.3401C174.045 32.8843 174.81 33.1565 175.795 33.1565C176.676 33.1565 177.453 32.9491 178.127 32.5345C178.801 32.1198 179.332 31.5496 179.721 30.824C180.136 30.0724 180.343 29.2171 180.343 28.2582L180.848 33.0398C180.201 34.4652 179.255 35.6185 178.011 36.4997C176.767 37.3809 175.263 37.8214 173.501 37.8214ZM180.46 37.4327V32.7677H180.343V17.6065H186.174V37.4327H180.46Z" fill="#EAF2FF"/>
<path d="M190.852 37.4327V17.6065H196.567V22.2715H196.683V37.4327H190.852ZM196.683 27.092L196.178 22.3881C196.644 20.7036 197.409 19.4207 198.472 18.5395C199.534 17.6584 200.856 17.2178 202.437 17.2178C202.929 17.2178 203.292 17.2696 203.525 17.3733V22.8158C203.396 22.7639 203.214 22.738 202.981 22.738C202.748 22.7121 202.463 22.6991 202.126 22.6991C200.26 22.6991 198.886 23.036 198.005 23.7099C197.124 24.3578 196.683 25.4852 196.683 27.092Z" fill="#EAF2FF"/>
<path d="M208.073 45.402L213.555 33.2731L214.565 31.6015L219.697 17.6065H225.917L213.905 45.402H208.073ZM212.272 37.0439L204.652 17.6065H210.95L217.209 35.3335L212.272 37.0439Z" fill="#EAF2FF"/>
<path d="M73.6446 55.5819V49.6827H71.2284V48.6417H77.2047V49.6827H74.7885V55.5819H73.6446Z" fill="#6B7280"/>
<path d="M78.4148 55.5819V48.6417H81.3708C81.5464 48.6417 81.7349 48.6524 81.9363 48.6738C82.1419 48.6909 82.3283 48.7231 82.4954 48.7702C82.8681 48.8687 83.1744 49.0722 83.4143 49.3807C83.6585 49.6849 83.7806 50.0704 83.7806 50.5374C83.7806 50.7987 83.7399 51.0258 83.6585 51.2186C83.5814 51.4114 83.47 51.5784 83.3243 51.7198C83.2601 51.7841 83.1894 51.8419 83.1123 51.8933C83.0352 51.9447 82.9581 51.9854 82.8809 52.0154C83.0309 52.0411 83.183 52.099 83.3372 52.1889C83.5814 52.3217 83.772 52.5081 83.9091 52.748C84.0505 52.9879 84.1212 53.2942 84.1212 53.6669C84.1212 54.1382 84.0077 54.528 83.7806 54.8365C83.5535 55.1407 83.2408 55.3506 82.8424 55.4663C82.6753 55.5134 82.4911 55.5455 82.2897 55.5627C82.0884 55.5755 81.8935 55.5819 81.705 55.5819H78.4148ZM79.5715 54.6501H81.6407C81.7307 54.6501 81.8378 54.6416 81.962 54.6244C82.0905 54.6073 82.2041 54.5859 82.3026 54.5602C82.5254 54.4959 82.686 54.376 82.7845 54.2003C82.8874 54.0247 82.9388 53.834 82.9388 53.6284C82.9388 53.3542 82.8617 53.1314 82.7074 52.9601C82.5575 52.7887 82.3583 52.6816 82.1098 52.6388C82.0198 52.613 81.9213 52.5981 81.8142 52.5938C81.7114 52.5895 81.6193 52.5873 81.5379 52.5873H79.5715V54.6501ZM79.5715 51.6427H81.2937C81.4136 51.6427 81.54 51.6363 81.6728 51.6234C81.8056 51.6063 81.9213 51.5784 82.0198 51.5399C82.2169 51.467 82.3604 51.3471 82.4504 51.18C82.5446 51.0086 82.5918 50.8223 82.5918 50.6209C82.5918 50.3982 82.5404 50.2032 82.4375 50.0362C82.339 49.8648 82.1869 49.747 81.9813 49.6827C81.8442 49.6313 81.69 49.6035 81.5186 49.5992C81.3515 49.5906 81.2444 49.5863 81.1973 49.5863H79.5715V51.6427Z" fill="#6B7280"/>
<path d="M88.3682 55.7747C87.6784 55.7747 87.0829 55.6183 86.5817 55.3056C86.0848 54.9929 85.7013 54.5602 85.4314 54.0075C85.1615 53.4549 85.0266 52.8208 85.0266 52.1054C85.0266 51.3771 85.1637 50.7387 85.4379 50.1904C85.712 49.642 86.0997 49.2157 86.601 48.9116C87.1022 48.6031 87.6913 48.4489 88.3682 48.4489C89.0622 48.4489 89.6598 48.6053 90.1611 48.918C90.6623 49.2265 91.0458 49.657 91.3114 50.2097C91.5813 50.758 91.7162 51.3899 91.7162 52.1054C91.7162 52.8294 91.5813 53.4677 91.3114 54.0204C91.0415 54.5687 90.6559 54.9993 90.1547 55.312C89.6534 55.6205 89.0579 55.7747 88.3682 55.7747ZM88.3682 54.6887C89.0879 54.6887 89.6234 54.4488 89.9747 53.969C90.326 53.4891 90.5017 52.868 90.5017 52.1054C90.5017 51.3214 90.3239 50.698 89.9683 50.2354C89.6127 49.7684 89.0793 49.5349 88.3682 49.5349C87.8841 49.5349 87.4857 49.6442 87.1729 49.8626C86.8602 50.0811 86.6267 50.3832 86.4725 50.7687C86.3182 51.1543 86.2411 51.5999 86.2411 52.1054C86.2411 52.8851 86.4211 53.5106 86.7809 53.9818C87.1408 54.4531 87.6699 54.6887 88.3682 54.6887Z" fill="#6B7280"/>
<path d="M96.1192 47.832C95.7979 47.832 95.5045 47.7527 95.2389 47.5942C94.9732 47.4357 94.7612 47.2258 94.6027 46.9644C94.4442 46.6988 94.3649 46.4032 94.3649 46.0776H95.2903C95.2903 46.3047 95.3717 46.4996 95.5345 46.6624C95.6973 46.8252 95.8922 46.9066 96.1192 46.9066C96.3506 46.9066 96.5455 46.8252 96.704 46.6624C96.8668 46.4996 96.9482 46.3047 96.9482 46.0776H97.8736C97.8736 46.4032 97.7943 46.6988 97.6358 46.9644C97.4816 47.2258 97.2695 47.4357 96.9996 47.5942C96.734 47.7527 96.4406 47.832 96.1192 47.832ZM98.8118 48.6417V55.5819H97.7065V50.4667L94.0693 55.5819H93.1246V48.6417H94.2299V53.6862L97.8736 48.6417H98.8118Z" fill="#6B7280"/>
<path d="M106.462 58.4737V55.7105C105.785 55.8176 105.168 55.7447 104.611 55.492C104.058 55.2349 103.617 54.8215 103.287 54.2517C102.962 53.6776 102.799 52.9665 102.799 52.1182C102.799 51.2657 102.962 50.5524 103.287 49.9783C103.617 49.4042 104.058 48.9908 104.611 48.7381C105.168 48.481 105.785 48.4061 106.462 48.5132V46.3989H107.503V48.5132C108.18 48.4061 108.795 48.481 109.347 48.7381C109.904 48.9908 110.345 49.4042 110.671 49.9783C111.001 50.5524 111.166 51.2657 111.166 52.1182C111.166 52.9665 111.001 53.6776 110.671 54.2517C110.345 54.8215 109.904 55.2349 109.347 55.492C108.795 55.7447 108.18 55.8176 107.503 55.7105V58.4737H106.462ZM106.462 54.663V49.567C106.115 49.5071 105.791 49.5178 105.492 49.5992C105.192 49.6763 104.928 49.8219 104.701 50.0362C104.474 50.2504 104.296 50.531 104.168 50.878C104.039 51.225 103.975 51.6384 103.975 52.1182C103.975 52.5938 104.039 53.005 104.168 53.3521C104.301 53.6991 104.48 53.9797 104.708 54.1939C104.939 54.4038 105.204 54.5495 105.504 54.6309C105.804 54.708 106.123 54.7187 106.462 54.663ZM107.503 54.663C107.841 54.7187 108.161 54.708 108.46 54.6309C108.76 54.5537 109.026 54.4102 109.257 54.2003C109.489 53.9861 109.669 53.7055 109.797 53.3585C109.926 53.0115 109.99 52.5981 109.99 52.1182C109.99 51.6341 109.926 51.2186 109.797 50.8716C109.673 50.5245 109.497 50.2439 109.27 50.0297C109.043 49.8155 108.777 49.6699 108.473 49.5927C108.173 49.5156 107.85 49.5071 107.503 49.567V54.663Z" fill="#6B7280"/>
<path d="M118.266 48.6417V55.5819H117.161V50.4667L113.524 55.5819H112.579V48.6417H113.684V53.6862L117.328 48.6417H118.266Z" fill="#6B7280"/>
<path d="M120.059 55.5819V48.6417H121.203V51.5656H124.853V48.6417H125.997V55.5819H124.853V52.6516H121.203V55.5819H120.059Z" fill="#6B7280"/>
<path d="M129.77 55.7747C129.252 55.7747 128.817 55.6805 128.466 55.492C128.119 55.2992 127.855 55.0464 127.675 54.7337C127.499 54.4209 127.412 54.0782 127.412 53.7055C127.412 53.3413 127.48 53.0265 127.617 52.7608C127.759 52.4909 127.956 52.2682 128.208 52.0925C128.461 51.9126 128.763 51.7712 129.115 51.6684C129.444 51.5784 129.813 51.5013 130.22 51.4371C130.631 51.3685 131.047 51.3064 131.467 51.2507C131.886 51.195 132.278 51.1415 132.643 51.09L132.231 51.3278C132.244 50.7109 132.12 50.2546 131.859 49.959C131.602 49.6634 131.156 49.5156 130.522 49.5156C130.102 49.5156 129.734 49.612 129.417 49.8048C129.104 49.9933 128.883 50.3018 128.755 50.7302L127.669 50.4024C127.836 49.7941 128.159 49.3164 128.639 48.9694C129.119 48.6224 129.751 48.4489 130.535 48.4489C131.165 48.4489 131.704 48.5624 132.154 48.7895C132.608 49.0123 132.934 49.3507 133.131 49.8048C133.229 50.019 133.292 50.2525 133.317 50.5053C133.343 50.7537 133.356 51.0151 133.356 51.2893V55.5819H132.341V53.9176L132.578 54.0718C132.317 54.633 131.951 55.0571 131.479 55.3442C131.012 55.6312 130.443 55.7747 129.77 55.7747ZM129.944 54.8172C130.355 54.8172 130.71 54.7444 131.01 54.5987C131.314 54.4488 131.559 54.2539 131.743 54.014C131.927 53.7698 132.047 53.5041 132.103 53.2171C132.167 53.0029 132.201 52.7651 132.206 52.5038C132.214 52.2382 132.218 52.0347 132.218 51.8933L132.617 52.0668C132.244 52.1182 131.878 52.1675 131.518 52.2146C131.158 52.2617 130.818 52.3132 130.496 52.3689C130.175 52.4203 129.886 52.4824 129.629 52.5552C129.44 52.6152 129.262 52.6923 129.095 52.7866C128.933 52.8808 128.8 53.0029 128.697 53.1528C128.598 53.2985 128.549 53.4806 128.549 53.6991C128.549 53.8876 128.596 54.0675 128.69 54.2389C128.789 54.4102 128.939 54.5495 129.14 54.6566C129.346 54.7637 129.614 54.8172 129.944 54.8172Z" fill="#6B7280"/>
<path d="M135.02 55.5819V48.6417H136.164V51.5656H139.814V48.6417H140.958V55.5819H139.814V52.6516H136.164V55.5819H135.02Z" fill="#6B7280"/>
<path d="M145.682 55.7747C144.979 55.7747 144.382 55.6183 143.889 55.3056C143.401 54.9886 143.028 54.5537 142.771 54.0011C142.514 53.4484 142.381 52.8187 142.373 52.1118C142.381 51.3878 142.516 50.7516 142.777 50.2032C143.043 49.6506 143.422 49.22 143.915 48.9116C144.408 48.6031 145.001 48.4489 145.695 48.4489C146.427 48.4489 147.057 48.6288 147.584 48.9887C148.115 49.3486 148.471 49.8412 148.651 50.4667L147.52 50.8073C147.374 50.4046 147.137 50.0918 146.807 49.8691C146.481 49.6463 146.106 49.5349 145.682 49.5349C145.207 49.5349 144.815 49.6463 144.506 49.8691C144.198 50.0876 143.968 50.3917 143.818 50.7816C143.669 51.1672 143.591 51.6106 143.587 52.1118C143.596 52.8829 143.773 53.5063 144.12 53.9818C144.472 54.4531 144.992 54.6887 145.682 54.6887C146.136 54.6887 146.513 54.5859 146.813 54.3802C147.113 54.1703 147.34 53.8683 147.494 53.4742L148.651 53.7762C148.411 54.4231 148.036 54.9179 147.526 55.2606C147.017 55.6034 146.402 55.7747 145.682 55.7747Z" fill="#6B7280"/>
<path d="M152.73 55.7747C152.041 55.7747 151.445 55.6183 150.944 55.3056C150.447 54.9929 150.063 54.5602 149.793 54.0075C149.524 53.4549 149.389 52.8208 149.389 52.1054C149.389 51.3771 149.526 50.7387 149.8 50.1904C150.074 49.642 150.462 49.2157 150.963 48.9116C151.464 48.6031 152.053 48.4489 152.73 48.4489C153.424 48.4489 154.022 48.6053 154.523 48.918C155.024 49.2265 155.408 49.657 155.673 50.2097C155.943 50.758 156.078 51.3899 156.078 52.1054C156.078 52.8294 155.943 53.4677 155.673 54.0204C155.404 54.5687 155.018 54.9993 154.517 55.312C154.015 55.6205 153.42 55.7747 152.73 55.7747ZM152.73 54.6887C153.45 54.6887 153.985 54.4488 154.337 53.969C154.688 53.4891 154.864 52.868 154.864 52.1054C154.864 51.3214 154.686 50.698 154.33 50.2354C153.975 49.7684 153.441 49.5349 152.73 49.5349C152.246 49.5349 151.848 49.6442 151.535 49.8626C151.222 50.0811 150.989 50.3832 150.835 50.7687C150.68 51.1543 150.603 51.5999 150.603 52.1054C150.603 52.8851 150.783 53.5106 151.143 53.9818C151.503 54.4531 152.032 54.6887 152.73 54.6887Z" fill="#6B7280"/>
<path d="M157.487 55.5819V48.6417H160.443C160.618 48.6417 160.807 48.6524 161.008 48.6738C161.214 48.6909 161.4 48.7231 161.567 48.7702C161.94 48.8687 162.246 49.0722 162.486 49.3807C162.73 49.6849 162.853 50.0704 162.853 50.5374C162.853 50.7987 162.812 51.0258 162.73 51.2186C162.653 51.4114 162.542 51.5784 162.396 51.7198C162.332 51.7841 162.261 51.8419 162.184 51.8933C162.107 51.9447 162.03 51.9854 161.953 52.0154C162.103 52.0411 162.255 52.099 162.409 52.1889C162.653 52.3217 162.844 52.5081 162.981 52.748C163.122 52.9879 163.193 53.2942 163.193 53.6669C163.193 54.1382 163.08 54.528 162.853 54.8365C162.625 55.1407 162.313 55.3506 161.914 55.4663C161.747 55.5134 161.563 55.5455 161.362 55.5627C161.16 55.5755 160.965 55.5819 160.777 55.5819H157.487ZM158.643 54.6501H160.713C160.803 54.6501 160.91 54.6416 161.034 54.6244C161.162 54.6073 161.276 54.5859 161.375 54.5602C161.597 54.4959 161.758 54.376 161.857 54.2003C161.959 54.0247 162.011 53.834 162.011 53.6284C162.011 53.3542 161.934 53.1314 161.779 52.9601C161.629 52.7887 161.43 52.6816 161.182 52.6388C161.092 52.613 160.993 52.5981 160.886 52.5938C160.783 52.5895 160.691 52.5873 160.61 52.5873H158.643V54.6501ZM158.643 51.6427H160.366C160.486 51.6427 160.612 51.6363 160.745 51.6234C160.878 51.6063 160.993 51.5784 161.092 51.5399C161.289 51.467 161.432 51.3471 161.522 51.18C161.617 51.0086 161.664 50.8223 161.664 50.6209C161.664 50.3982 161.612 50.2032 161.509 50.0362C161.411 49.8648 161.259 49.747 161.053 49.6827C160.916 49.6313 160.762 49.6035 160.591 49.5992C160.423 49.5906 160.316 49.5863 160.269 49.5863H158.643V51.6427Z" fill="#6B7280"/>
<path d="M164.484 55.5819L164.478 48.6417H165.628V51.1543H166.688C166.89 51.1543 167.095 51.1586 167.305 51.1672C167.515 51.1757 167.697 51.195 167.851 51.225C168.211 51.2978 168.526 51.4199 168.796 51.5913C169.066 51.7627 169.276 51.994 169.426 52.2853C169.576 52.5766 169.651 52.9386 169.651 53.3713C169.651 53.9711 169.494 54.4466 169.182 54.7979C168.873 55.145 168.468 55.3763 167.967 55.492C167.796 55.5305 167.599 55.5562 167.376 55.5691C167.157 55.5777 166.95 55.5819 166.753 55.5819H164.484ZM165.628 54.6373H166.772C166.9 54.6373 167.044 54.633 167.202 54.6244C167.361 54.6159 167.502 54.5944 167.626 54.5602C167.845 54.4959 168.04 54.3695 168.211 54.181C168.387 53.9925 168.475 53.7226 168.475 53.3713C168.475 53.0158 168.389 52.7416 168.218 52.5488C168.051 52.356 167.83 52.2296 167.556 52.1696C167.432 52.1397 167.301 52.1204 167.164 52.1118C167.027 52.1032 166.896 52.099 166.772 52.099H165.628V54.6373ZM170.448 55.5819V48.6417H171.591V55.5819H170.448Z" fill="#6B7280"/>
<path d="M176.384 47.832C176.062 47.832 175.769 47.7527 175.503 47.5942C175.238 47.4357 175.025 47.2258 174.867 46.9644C174.708 46.6988 174.629 46.4032 174.629 46.0776H175.555C175.555 46.3047 175.636 46.4996 175.799 46.6624C175.962 46.8252 176.156 46.9066 176.384 46.9066C176.615 46.9066 176.81 46.8252 176.968 46.6624C177.131 46.4996 177.213 46.3047 177.213 46.0776H178.138C178.138 46.4032 178.059 46.6988 177.9 46.9644C177.746 47.2258 177.534 47.4357 177.264 47.5942C176.998 47.7527 176.705 47.832 176.384 47.832ZM179.076 48.6417V55.5819H177.971V50.4667L174.334 55.5819H173.389V48.6417H174.494V53.6862L178.138 48.6417H179.076Z" fill="#6B7280"/>
<path d="M186.27 55.7811C185.614 55.7769 185.055 55.6355 184.593 55.357C184.13 55.0743 183.77 54.6609 183.513 54.1168C183.256 53.5727 183.113 52.9065 183.083 52.1182C183.065 51.7541 183.07 51.3535 183.095 50.9165C183.125 50.4796 183.173 50.0597 183.237 49.657C183.305 49.2543 183.391 48.9223 183.494 48.661C183.609 48.3482 183.772 48.059 183.982 47.7934C184.196 47.5235 184.436 47.3008 184.702 47.1251C184.972 46.9409 185.274 46.7974 185.608 46.6945C185.942 46.5917 186.291 46.5125 186.655 46.4568C187.024 46.3968 187.392 46.3454 187.761 46.3026C188.129 46.2554 188.481 46.1997 188.815 46.1355L188.93 47.1637C188.695 47.2151 188.416 47.2601 188.095 47.2986C187.774 47.3329 187.439 47.3736 187.092 47.4207C186.75 47.4678 186.42 47.5342 186.103 47.6199C185.79 47.7013 185.52 47.8148 185.293 47.9605C184.959 48.1619 184.702 48.4639 184.522 48.8666C184.346 49.265 184.239 49.7127 184.201 50.2097C184.466 49.7984 184.811 49.4964 185.235 49.3036C185.659 49.1108 186.111 49.0144 186.591 49.0144C187.212 49.0144 187.748 49.1601 188.198 49.4514C188.648 49.7384 188.992 50.1347 189.232 50.6402C189.477 51.1457 189.599 51.722 189.599 52.3689C189.599 53.0543 189.462 53.6541 189.187 54.1682C188.913 54.6823 188.525 55.0807 188.024 55.3634C187.527 55.6462 186.943 55.7854 186.27 55.7811ZM186.341 54.6951C187.013 54.6951 187.523 54.4873 187.87 54.0718C188.217 53.6519 188.391 53.095 188.391 52.401C188.391 51.6898 188.211 51.1307 187.851 50.7238C187.491 50.3125 186.985 50.1068 186.334 50.1068C185.674 50.1068 185.169 50.3125 184.818 50.7238C184.471 51.1307 184.297 51.6898 184.297 52.401C184.297 53.1164 184.473 53.6776 184.824 54.0846C185.175 54.4916 185.681 54.6951 186.341 54.6951Z" fill="#6B7280"/>
<path d="M193.973 55.7747C193.283 55.7747 192.688 55.6183 192.187 55.3056C191.69 54.9929 191.306 54.5602 191.036 54.0075C190.767 53.4549 190.632 52.8208 190.632 52.1054C190.632 51.3771 190.769 50.7387 191.043 50.1904C191.317 49.642 191.705 49.2157 192.206 48.9116C192.707 48.6031 193.296 48.4489 193.973 48.4489C194.667 48.4489 195.265 48.6053 195.766 48.918C196.267 49.2265 196.651 49.657 196.916 50.2097C197.186 50.758 197.321 51.3899 197.321 52.1054C197.321 52.8294 197.186 53.4677 196.916 54.0204C196.646 54.5687 196.261 54.9993 195.76 55.312C195.258 55.6205 194.663 55.7747 193.973 55.7747ZM193.973 54.6887C194.693 54.6887 195.228 54.4488 195.58 53.969C195.931 53.4891 196.107 52.868 196.107 52.1054C196.107 51.3214 195.929 50.698 195.573 50.2354C195.218 49.7684 194.684 49.5349 193.973 49.5349C193.489 49.5349 193.091 49.6442 192.778 49.8626C192.465 50.0811 192.232 50.3832 192.077 50.7687C191.923 51.1543 191.846 51.5999 191.846 52.1054C191.846 52.8851 192.026 53.5106 192.386 53.9818C192.746 54.4531 193.275 54.6887 193.973 54.6887Z" fill="#6B7280"/>
<path d="M200.423 55.5819V49.6827H198.007V48.6417H203.983V49.6827H201.567V55.5819H200.423Z" fill="#6B7280"/>
</svg>
