<svg width="169" height="50" viewBox="0 0 169 50" fill="none" xmlns="http://www.w3.org/2000/svg">
<path d="M37.7027 9.00469C36.2594 9.16709 34.762 9.87085 33.2465 11.0438C31.0094 9.87085 28.5197 9.23927 25.9218 9.20318C21.5558 9.20318 17.4604 10.7912 14.3754 13.8047C12.8446 15.2936 11.6243 17.0714 10.7851 19.0352C9.94589 20.9989 9.5044 23.1097 9.4862 25.2453C9.45699 27.2843 9.81197 29.3106 10.5326 31.2182C8.60218 33.3836 6.79805 37.8588 9.03517 40.3851C9.97331 41.4317 11.3084 41.9009 12.914 41.9009C17.8032 41.9009 25.2001 37.5701 31.4243 32.0483C39.7053 24.7039 46.1099 15.0498 42.3573 10.8092C41.7882 10.1574 41.0678 9.65532 40.2594 9.34699C39.451 9.03866 38.5793 8.93351 37.7207 9.04078L37.7027 9.00469ZM11.7233 37.9671C11.3264 37.5159 11.7233 36.0182 12.4269 34.755C12.9321 35.4588 13.4733 36.1445 14.0867 36.7761C14.4836 37.1731 14.8986 37.534 15.3135 37.8949C13.4192 38.4723 12.1383 38.4362 11.7233 37.949V37.9671ZM39.2362 16.4934C38.6769 15.6453 38.0635 14.8152 37.3419 14.0754C37.0352 13.7686 36.7285 13.4799 36.4037 13.2092C37.1073 12.8122 37.6666 12.6318 38.0635 12.5776C38.713 12.5054 39.2001 12.6859 39.6151 13.1551C40.012 13.6062 39.9218 14.7972 39.2182 16.4754L39.2362 16.4934ZM33.2104 34.0513C30.2517 36.6859 26.5893 39.3926 22.8908 41.4137C23.7568 41.558 24.6228 41.6663 25.5249 41.6663H25.7414C30.0171 41.6663 34.0223 40.0423 37.0713 37.0648C40.1744 34.0513 41.9063 29.9911 41.9604 25.6242C41.9604 25.2092 41.9424 24.8122 41.9244 24.3972C39.6151 27.7175 36.5661 31.0378 33.2104 34.0332V34.0513Z" fill="#1E2A38"/>
<path d="M14.5761 25.4824C14.5761 26.7331 14.8458 27.946 15.3786 29.0919C13.9551 28.6215 12.9192 27.6902 12.9192 25.4824C12.9192 23.3882 13.9551 22.3433 15.3788 21.8729C14.8461 23.0194 14.5761 24.2328 14.5761 25.4824Z" fill="#2FBF71"/>
<path d="M25.6805 16.3628C31.5359 16.363 36.2821 20.4478 36.2821 25.4858C36.2821 26.1227 36.2058 26.7442 36.0614 27.3442C35.2597 28.2356 34.3803 29.1823 33.618 29.9302C32.0787 31.4403 29.6933 33.4383 28.7518 34.2173C27.7795 34.4702 26.7487 34.6079 25.6805 34.6079C23.6483 34.6079 21.7487 34.1162 20.1356 33.2632C19.4298 33.8792 18.512 34.2521 17.5751 34.2896C18.0583 33.661 18.3343 32.8773 18.3602 32.0854C16.3378 30.4244 15.0782 28.0816 15.078 25.4858C15.078 20.4477 19.8251 16.3628 25.6805 16.3628ZM32.2694 22.7612C31.8752 22.325 31.3294 22.7612 30.7411 22.7612H20.619C20.0378 22.761 19.4814 22.331 19.0907 22.7612C17.9843 23.9804 17.3251 23.819 17.3251 25.4858C17.3252 27.1523 17.9844 27.1885 19.0907 28.4077C19.4815 28.8381 20.194 28.7622 20.7753 28.7622H30.9296C31.5108 28.7622 31.8787 29.1925 32.2694 28.7622C33.3757 27.543 34.0349 27.1524 34.035 25.4858C34.035 23.8258 33.3677 23.9781 32.2694 22.7612Z" fill="#2FBF71"/>
<path d="M35.9805 21.8741C37.2133 22.2795 38.1544 23.1116 38.3926 24.673C38.1281 24.9849 37.4914 25.7311 36.709 26.6163C36.7591 26.2433 36.7871 25.8664 36.7871 25.4855C36.7871 24.2353 36.5161 23.0212 35.9805 21.8741Z" fill="#2FBF71"/>
<path d="M31.8948 29.2836H19.4659C17.7203 29.2836 16.3052 27.8726 16.3052 26.1321V25.1522C16.3052 23.4116 17.7203 22.0007 19.4659 22.0007H31.8948C33.6404 22.0007 35.0555 23.4116 35.0555 25.1522V26.1321C35.0555 27.8726 33.6404 29.2836 31.8948 29.2836Z" fill="white"/>
<path d="M26.6764 26.4088C26.873 26.4088 27.0174 26.5977 26.962 26.787C26.7993 27.3438 26.2872 27.7504 25.6801 27.7504C25.0734 27.7504 24.5612 27.3438 24.3985 26.787C24.3432 26.5977 24.4878 26.4088 24.6841 26.4088H26.6764Z" fill="#1E2A38"/>
<path d="M21.5516 25.7329C21.5516 26.4747 20.9502 27.076 20.2086 27.076C19.4666 27.076 18.8652 26.4747 18.8652 25.7329C18.8652 24.9911 19.4666 24.3897 20.2086 24.3897C20.9502 24.3897 21.5516 24.9911 21.5516 25.7329Z" fill="#1E2A38"/>
<path d="M20.5393 25.958C20.6218 25.9582 20.6887 26.025 20.6887 26.1074C20.6886 26.1897 20.6217 26.2567 20.5393 26.2568C20.4567 26.2568 20.39 26.1898 20.3899 26.1074C20.3899 26.0249 20.4567 25.958 20.5393 25.958ZM19.8499 24.9697C20.09 24.9697 20.2843 25.1643 20.2844 25.4043C20.2844 25.6444 20.09 25.8389 19.8499 25.8389C19.6097 25.8388 19.4153 25.6443 19.4153 25.4043C19.4154 25.1643 19.6098 24.9698 19.8499 24.9697Z" fill="white"/>
<path d="M19.2818 27.3004C19.2036 27.3004 19.1279 27.2594 19.0867 27.1865C19.0258 27.0789 19.0642 26.942 19.1719 26.8811C19.1888 26.8714 19.5968 26.6446 20.2088 26.6446C20.8205 26.6446 21.2285 26.8714 21.2457 26.8811C21.3532 26.942 21.391 27.0786 21.3303 27.1863C21.2694 27.2936 21.1336 27.3316 21.0259 27.2714C21.0192 27.2677 20.6939 27.0924 20.2088 27.0924C19.7209 27.0924 19.3948 27.2696 19.3914 27.2714C19.3567 27.2911 19.3188 27.3004 19.2818 27.3004Z" fill="#1E2A38"/>
<path d="M32.5109 25.7328C32.5109 26.4746 31.9095 27.0759 31.1677 27.0759C30.4259 27.0759 29.8245 26.4746 29.8245 25.7328C29.8245 24.991 30.4259 24.3896 31.1677 24.3896C31.9095 24.3896 32.5109 24.991 32.5109 25.7328Z" fill="#1E2A38"/>
<path d="M31.4979 25.9578C31.5801 25.9578 31.6473 26.0247 31.6473 26.1072C31.6472 26.1896 31.58 26.2566 31.4979 26.2566C31.4154 26.2564 31.3486 26.1895 31.3485 26.1072C31.3485 26.0248 31.4153 25.9579 31.4979 25.9578ZM30.8094 24.9695C31.0492 24.9697 31.244 25.1641 31.244 25.4041C31.244 25.644 31.0492 25.8385 30.8094 25.8386C30.5693 25.8386 30.3749 25.6441 30.3749 25.4041C30.3749 25.164 30.5693 24.9695 30.8094 24.9695Z" fill="white"/>
<path d="M30.2406 27.3003C30.1627 27.3003 30.087 27.2593 30.0459 27.1864C29.9851 27.0788 30.0234 26.9419 30.1311 26.8809C30.1482 26.8713 30.5561 26.6445 31.1676 26.6445C31.7798 26.6445 32.1877 26.8713 32.2045 26.8809C32.3125 26.9419 32.3502 27.0785 32.2894 27.1861C32.2286 27.2935 32.0924 27.3314 31.9851 27.2713C31.9784 27.2676 31.6531 27.0923 31.1676 27.0923C30.6799 27.0923 30.3537 27.2695 30.3505 27.2713C30.316 27.291 30.278 27.3003 30.2406 27.3003Z" fill="#1E2A38"/>
<path d="M25.691 18.0183C25.8199 18.7625 26.4297 19.3636 27.2311 19.5652C26.4293 19.7667 25.8187 20.3694 25.6901 21.114C25.5612 20.3693 24.9522 19.7664 24.15 19.5652C24.952 19.364 25.562 18.7628 25.691 18.0183Z" fill="white"/>
<path d="M50.8774 26.7376V12.576H54.9593V15.9081H55.0426V26.7376H50.8774ZM60.4018 26.7376V17.7408C60.4018 17.0189 60.2074 16.4913 59.8187 16.1581C59.4484 15.8063 58.9208 15.6305 58.2359 15.6305C57.6435 15.6305 57.0974 15.7693 56.5976 16.047C56.1163 16.3062 55.7368 16.6856 55.4591 17.1855C55.1814 17.6668 55.0426 18.2406 55.0426 18.9071L54.6816 15.7138C55.1444 14.6771 55.8108 13.8533 56.6809 13.2424C57.5695 12.613 58.6339 12.2983 59.8742 12.2983C61.3551 12.2983 62.5029 12.7149 63.3174 13.5479C64.1504 14.3809 64.5669 15.4268 64.5669 16.6856V26.7376H60.4018ZM69.9261 26.7376V17.7408C69.9261 17.0189 69.7317 16.4913 69.343 16.1581C68.9728 15.8063 68.4452 15.6305 67.7602 15.6305C67.1679 15.6305 66.6218 15.7693 66.1219 16.047C65.6406 16.3062 65.2611 16.6856 64.9835 17.1855C64.7058 17.6668 64.5669 18.2406 64.5669 18.9071L63.9283 15.7138C64.3911 14.6771 65.076 13.8533 65.9831 13.2424C66.9087 12.613 68.0194 12.2983 69.3152 12.2983C70.8517 12.2983 72.0272 12.7334 72.8417 13.6034C73.6748 14.455 74.0913 15.5749 74.0913 16.9633V26.7376H69.9261Z" fill="#1E2A38"/>
<path d="M83.9265 27.0152C82.353 27.0152 80.9831 26.7098 79.8169 26.0989C78.6506 25.4695 77.7435 24.5995 77.0956 23.4887C76.4662 22.378 76.1515 21.1007 76.1515 19.6568C76.1515 18.1944 76.4662 16.917 77.0956 15.8248C77.7435 14.7141 78.6414 13.8533 79.7891 13.2424C80.9368 12.613 82.2697 12.2983 83.7876 12.2983C85.2501 12.2983 86.5181 12.5945 87.5918 13.1869C88.6655 13.7793 89.4985 14.6031 90.0909 15.6582C90.6833 16.7134 90.9795 17.9537 90.9795 19.3791C90.9795 19.6753 90.9702 19.953 90.9517 20.2121C90.9332 20.4528 90.9054 20.6842 90.8684 20.9063H78.5951V18.1573H87.5085L86.7866 18.6572C86.7866 17.5094 86.5089 16.6671 85.9535 16.1303C85.4167 15.5749 84.6762 15.2973 83.7321 15.2973C82.6399 15.2973 81.7884 15.6675 81.1775 16.408C80.5851 17.1484 80.2889 18.2591 80.2889 19.7401C80.2889 21.184 80.5851 22.2577 81.1775 22.9612C81.7884 23.6646 82.6954 24.0163 83.8987 24.0163C84.5651 24.0163 85.139 23.9053 85.6203 23.6831C86.1016 23.461 86.4626 23.1 86.7033 22.6002H90.6185C90.1557 23.97 89.3597 25.053 88.2305 25.849C87.1198 26.6265 85.6851 27.0152 83.9265 27.0152Z" fill="#1E2A38"/>
<path d="M93.207 26.7376V12.576H97.2888V15.9081H97.3721V26.7376H93.207ZM97.3721 19.3513L97.0112 15.9915C97.3444 14.7882 97.8905 13.8718 98.6495 13.2424C99.4084 12.613 100.353 12.2983 101.482 12.2983C101.833 12.2983 102.093 12.3354 102.259 12.4094V16.2969C102.167 16.2599 102.037 16.2414 101.871 16.2414C101.704 16.2228 101.5 16.2136 101.26 16.2136C99.9268 16.2136 98.9457 16.4542 98.3162 16.9356C97.6868 17.3983 97.3721 18.2036 97.3721 19.3513Z" fill="#1E2A38"/>
<path d="M110.468 27.0152C108.987 27.0152 107.682 26.7005 106.553 26.0711C105.424 25.4417 104.535 24.5717 103.887 23.461C103.258 22.3503 102.943 21.0822 102.943 19.6568C102.943 18.2314 103.258 16.9633 103.887 15.8526C104.535 14.7419 105.424 13.8718 106.553 13.2424C107.682 12.613 108.987 12.2983 110.468 12.2983C111.708 12.2983 112.819 12.5297 113.8 12.9925C114.8 13.4368 115.614 14.057 116.244 14.853C116.892 15.649 117.308 16.5838 117.493 17.6575H113.467C113.263 16.9726 112.893 16.4542 112.356 16.1025C111.838 15.7508 111.227 15.5749 110.524 15.5749C109.857 15.5749 109.274 15.7415 108.774 16.0748C108.293 16.408 107.923 16.88 107.664 17.4909C107.404 18.1018 107.275 18.8238 107.275 19.6568C107.275 20.4898 107.404 21.2118 107.664 21.8227C107.923 22.4336 108.293 22.9056 108.774 23.2388C109.274 23.572 109.857 23.7387 110.524 23.7387C111.227 23.7387 111.838 23.5628 112.356 23.2111C112.893 22.8593 113.263 22.341 113.467 21.6561H117.493C117.308 22.7298 116.892 23.6646 116.244 24.4606C115.614 25.2566 114.8 25.886 113.8 26.3488C112.819 26.7931 111.708 27.0152 110.468 27.0152Z" fill="#1E2A38"/>
<path d="M123.929 27.0152C122.93 27.0152 122.069 26.8024 121.347 26.3766C120.644 25.9323 120.107 25.3492 119.736 24.6272C119.366 23.8867 119.181 23.063 119.181 22.1559V12.576H123.346V21.3506C123.346 22.1281 123.541 22.7112 123.929 23.1C124.318 23.4887 124.864 23.6831 125.568 23.6831C126.197 23.6831 126.752 23.535 127.234 23.2388C127.715 22.9426 128.095 22.5354 128.372 22.0171C128.668 21.4802 128.817 20.8693 128.817 20.1844L129.177 23.5998C128.715 24.618 128.039 25.4417 127.15 26.0711C126.262 26.7005 125.188 27.0152 123.929 27.0152ZM128.9 26.7376V23.4054H128.817V12.576H132.982V26.7376H128.9Z" fill="#1E2A38"/>
<path d="M136.323 26.7376V12.576H140.405V15.9081H140.488V26.7376H136.323ZM140.488 19.3513L140.127 15.9915C140.46 14.7882 141.006 13.8718 141.765 13.2424C142.524 12.613 143.468 12.2983 144.598 12.2983C144.949 12.2983 145.209 12.3354 145.375 12.4094V16.2969C145.283 16.2599 145.153 16.2414 144.986 16.2414C144.82 16.2228 144.616 16.2136 144.376 16.2136C143.043 16.2136 142.062 16.4542 141.432 16.9356C140.803 17.3983 140.488 18.2036 140.488 19.3513Z" fill="#1E2A38"/>
<path d="M148.624 32.43L152.539 23.7664L153.261 22.5724L156.926 12.576H161.369L152.789 32.43H148.624ZM151.623 26.4599L146.18 12.576H150.679L155.149 25.2381L151.623 26.4599Z" fill="#1E2A38"/>
<g opacity="0.5">
<path d="M52.6033 39.7011V35.4874H50.8774V34.7438H55.1463V35.4874H53.4204V39.7011H52.6033Z" fill="#2D3748"/>
<path d="M56.0106 39.7011V34.7438H58.122C58.2475 34.7438 58.3821 34.7515 58.5259 34.7668C58.6728 34.779 58.8059 34.802 58.9253 34.8356C59.1915 34.906 59.4103 35.0513 59.5817 35.2717C59.7561 35.4889 59.8433 35.7643 59.8433 36.0979C59.8433 36.2846 59.8142 36.4467 59.7561 36.5844C59.701 36.7222 59.6214 36.8415 59.5174 36.9425C59.4715 36.9884 59.421 37.0297 59.3659 37.0664C59.3109 37.1031 59.2558 37.1322 59.2007 37.1536C59.3078 37.172 59.4164 37.2133 59.5266 37.2776C59.701 37.3724 59.8372 37.5055 59.9351 37.6769C60.0361 37.8483 60.0866 38.0671 60.0866 38.3333C60.0866 38.6699 60.0055 38.9484 59.8433 39.1687C59.6811 39.3859 59.4577 39.5359 59.1731 39.6185C59.0538 39.6522 58.9222 39.6751 58.7784 39.6874C58.6346 39.6965 58.4953 39.7011 58.3607 39.7011H56.0106ZM56.8368 39.0356H58.3148C58.3791 39.0356 58.4556 39.0295 58.5443 39.0172C58.6361 39.005 58.7172 38.9897 58.7876 38.9713C58.9467 38.9254 59.0615 38.8397 59.1318 38.7143C59.2053 38.5888 59.242 38.4526 59.242 38.3057C59.242 38.1099 59.1869 37.9508 59.0768 37.8284C58.9697 37.706 58.8274 37.6295 58.6499 37.5989C58.5856 37.5805 58.5152 37.5698 58.4387 37.5667C58.3653 37.5637 58.2995 37.5621 58.2414 37.5621H56.8368V39.0356ZM56.8368 36.8874H58.0669C58.1526 36.8874 58.2429 36.8828 58.3377 36.8736C58.4326 36.8614 58.5152 36.8415 58.5856 36.814C58.7264 36.7619 58.8289 36.6763 58.8931 36.5569C58.9605 36.4345 58.9941 36.3014 58.9941 36.1576C58.9941 35.9984 58.9574 35.8592 58.884 35.7399C58.8136 35.6175 58.705 35.5333 58.5581 35.4874C58.4601 35.4507 58.35 35.4308 58.2276 35.4277C58.1082 35.4216 58.0317 35.4186 57.9981 35.4186H56.8368V36.8874Z" fill="#2D3748"/>
<path d="M63.1201 39.8388C62.6275 39.8388 62.2021 39.7271 61.8441 39.5038C61.4891 39.2804 61.2152 38.9713 61.0225 38.5766C60.8297 38.1818 60.7333 37.7289 60.7333 37.2179C60.7333 36.6977 60.8312 36.2417 61.0271 35.85C61.2229 35.4583 61.4998 35.1539 61.8579 34.9366C62.2159 34.7163 62.6367 34.6061 63.1201 34.6061C63.6159 34.6061 64.0428 34.7178 64.4008 34.9412C64.7588 35.1615 65.0327 35.469 65.2224 35.8638C65.4152 36.2555 65.5116 36.7069 65.5116 37.2179C65.5116 37.735 65.4152 38.191 65.2224 38.5857C65.0296 38.9774 64.7542 39.285 64.3962 39.5084C64.0382 39.7287 63.6128 39.8388 63.1201 39.8388ZM63.1201 39.0631C63.6342 39.0631 64.0167 38.8917 64.2677 38.549C64.5186 38.2063 64.6441 37.7626 64.6441 37.2179C64.6441 36.6579 64.5171 36.2126 64.2631 35.8822C64.0091 35.5486 63.6281 35.3818 63.1201 35.3818C62.7744 35.3818 62.4898 35.4599 62.2664 35.6159C62.043 35.772 61.8762 35.9877 61.7661 36.2631C61.6559 36.5385 61.6008 36.8568 61.6008 37.2179C61.6008 37.7748 61.7293 38.2216 61.9864 38.5582C62.2434 38.8948 62.6214 39.0631 63.1201 39.0631Z" fill="#2D3748"/>
<path d="M68.6566 34.1655C68.4271 34.1655 68.2175 34.1088 68.0278 33.9956C67.838 33.8824 67.6866 33.7325 67.5733 33.5458C67.4601 33.3561 67.4035 33.1449 67.4035 32.9124H68.0645C68.0645 33.0745 68.1226 33.2138 68.2389 33.3301C68.3552 33.4463 68.4944 33.5045 68.6566 33.5045C68.8219 33.5045 68.9611 33.4463 69.0743 33.3301C69.1906 33.2138 69.2487 33.0745 69.2487 32.9124H69.9097C69.9097 33.1449 69.8531 33.3561 69.7399 33.5458C69.6297 33.7325 69.4782 33.8824 69.2855 33.9956C69.0957 34.1088 68.8861 34.1655 68.6566 34.1655ZM70.5799 34.7438V39.7011H69.7904V36.0474L67.1924 39.7011H66.5176V34.7438H67.3071V38.3471L69.9097 34.7438H70.5799Z" fill="#2D3748"/>
<path d="M76.0442 41.7667V39.7929C75.5607 39.8694 75.1201 39.8174 74.7222 39.6369C74.3275 39.4533 74.0123 39.158 73.7767 38.751C73.5441 38.3409 73.4278 37.833 73.4278 37.2271C73.4278 36.6181 73.5441 36.1086 73.7767 35.6986C74.0123 35.2885 74.3275 34.9932 74.7222 34.8127C75.1201 34.6291 75.5607 34.5755 76.0442 34.652V33.1419H76.7878V34.652C77.2713 34.5755 77.7104 34.6291 78.1052 34.8127C78.503 34.9932 78.8182 35.2885 79.0507 35.6986C79.2864 36.1086 79.4042 36.6181 79.4042 37.2271C79.4042 37.833 79.2864 38.3409 79.0507 38.751C78.8182 39.158 78.503 39.4533 78.1052 39.6369C77.7104 39.8174 77.2713 39.8694 76.7878 39.7929V41.7667H76.0442ZM76.0442 39.0448V35.4048C75.7963 35.3619 75.5653 35.3696 75.3511 35.4277C75.1369 35.4828 74.9487 35.5869 74.7865 35.7399C74.6243 35.8929 74.4973 36.0933 74.4055 36.3412C74.3137 36.589 74.2678 36.8843 74.2678 37.2271C74.2678 37.5667 74.3137 37.8605 74.4055 38.1084C74.5004 38.3562 74.6289 38.5567 74.7911 38.7097C74.9563 38.8596 75.1461 38.9637 75.3603 39.0218C75.5745 39.0769 75.8025 39.0845 76.0442 39.0448ZM76.7878 39.0448C77.0295 39.0845 77.2575 39.0769 77.4717 39.0218C77.6859 38.9667 77.8757 38.8642 78.0409 38.7143C78.2061 38.5613 78.3347 38.3608 78.4265 38.113C78.5183 37.8651 78.5642 37.5698 78.5642 37.2271C78.5642 36.8813 78.5183 36.5844 78.4265 36.3366C78.3377 36.0887 78.2123 35.8883 78.0501 35.7353C77.8879 35.5823 77.6982 35.4782 77.4809 35.4231C77.2667 35.3681 77.0357 35.3619 76.7878 35.4048V39.0448Z" fill="#2D3748"/>
<path d="M84.4757 34.7438V39.7011H83.6862V36.0474L81.0882 39.7011H80.4135V34.7438H81.203V38.3471L83.8056 34.7438H84.4757Z" fill="#2D3748"/>
<path d="M85.7567 39.7011V34.7438H86.5737V36.8323H89.1809V34.7438H89.9979V39.7011H89.1809V37.608H86.5737V39.7011H85.7567Z" fill="#2D3748"/>
<path d="M92.6929 39.8388C92.3226 39.8388 92.012 39.7715 91.7611 39.6369C91.5132 39.4992 91.3251 39.3186 91.1965 39.0952C91.0711 38.8719 91.0083 38.6271 91.0083 38.3608C91.0083 38.1007 91.0573 37.8758 91.1552 37.6861C91.2562 37.4933 91.397 37.3342 91.5775 37.2087C91.7581 37.0802 91.9738 36.9792 92.2247 36.9058C92.4603 36.8415 92.7235 36.7864 93.0142 36.7405C93.308 36.6916 93.6048 36.6472 93.9047 36.6074C94.2046 36.5676 94.4846 36.5294 94.7447 36.4926L94.4509 36.6625C94.4601 36.2218 94.3714 35.8959 94.1847 35.6848C94.0011 35.4736 93.6828 35.3681 93.23 35.3681C92.9301 35.3681 92.6669 35.4369 92.4405 35.5746C92.2171 35.7093 92.0595 35.9296 91.9677 36.2356L91.1919 36.0015C91.3113 35.567 91.5423 35.2258 91.885 34.9779C92.2278 34.73 92.6791 34.6061 93.2391 34.6061C93.689 34.6061 94.0745 34.6872 94.3958 34.8494C94.7202 35.0085 94.9528 35.2503 95.0935 35.5746C95.1639 35.7276 95.2083 35.8944 95.2267 36.0749C95.245 36.2524 95.2542 36.4391 95.2542 36.6349V39.7011H94.529V38.5123L94.6988 38.6225C94.5121 39.0233 94.2505 39.3263 93.9139 39.5313C93.5803 39.7363 93.1733 39.8388 92.6929 39.8388ZM92.8168 39.1549C93.1106 39.1549 93.3646 39.1029 93.5788 38.9988C93.7961 38.8917 93.9705 38.7525 94.1021 38.5811C94.2337 38.4067 94.3193 38.217 94.3591 38.012C94.405 37.859 94.4295 37.6891 94.4326 37.5025C94.4387 37.3127 94.4417 37.1674 94.4417 37.0664L94.7263 37.1903C94.4601 37.2271 94.1985 37.2623 93.9414 37.2959C93.6844 37.3296 93.4411 37.3663 93.2116 37.4061C92.9821 37.4428 92.7755 37.4872 92.5919 37.5392C92.4573 37.582 92.3303 37.6371 92.2109 37.7044C92.0947 37.7718 91.9998 37.859 91.9264 37.9661C91.856 38.0701 91.8208 38.2002 91.8208 38.3562C91.8208 38.4909 91.8544 38.6194 91.9218 38.7418C91.9922 38.8642 92.0993 38.9637 92.2431 39.0402C92.39 39.1167 92.5812 39.1549 92.8168 39.1549Z" fill="#2D3748"/>
<path d="M96.443 39.7011V34.7438H97.2601V36.8323H99.8673V34.7438H100.684V39.7011H99.8673V37.608H97.2601V39.7011H96.443Z" fill="#2D3748"/>
<path d="M104.059 39.8388C103.557 39.8388 103.13 39.7271 102.778 39.5038C102.429 39.2773 102.163 38.9667 101.979 38.572C101.796 38.1772 101.701 37.7274 101.695 37.2225C101.701 36.7053 101.797 36.2509 101.984 35.8592C102.174 35.4645 102.444 35.1569 102.796 34.9366C103.148 34.7163 103.572 34.6061 104.068 34.6061C104.591 34.6061 105.041 34.7346 105.417 34.9917C105.797 35.2487 106.051 35.6006 106.179 36.0474L105.371 36.2907C105.267 36.003 105.098 35.7796 104.862 35.6205C104.629 35.4614 104.362 35.3818 104.059 35.3818C103.719 35.3818 103.439 35.4614 103.219 35.6205C102.998 35.7766 102.835 35.9939 102.727 36.2723C102.62 36.5477 102.565 36.8644 102.562 37.2225C102.568 37.7733 102.695 38.2185 102.943 38.5582C103.194 38.8948 103.566 39.0631 104.059 39.0631C104.383 39.0631 104.652 38.9897 104.866 38.8428C105.081 38.6928 105.243 38.4771 105.353 38.1956L106.179 38.4113C106.008 38.8734 105.74 39.2268 105.376 39.4716C105.012 39.7164 104.573 39.8388 104.059 39.8388Z" fill="#2D3748"/>
<path d="M109.093 39.8388C108.6 39.8388 108.175 39.7271 107.817 39.5038C107.462 39.2804 107.188 38.9713 106.995 38.5766C106.803 38.1818 106.706 37.7289 106.706 37.2179C106.706 36.6977 106.804 36.2417 107 35.85C107.196 35.4583 107.473 35.1539 107.831 34.9366C108.189 34.7163 108.61 34.6061 109.093 34.6061C109.589 34.6061 110.016 34.7178 110.374 34.9412C110.732 35.1615 111.006 35.469 111.195 35.8638C111.388 36.2555 111.484 36.7069 111.484 37.2179C111.484 37.735 111.388 38.191 111.195 38.5857C111.003 38.9774 110.727 39.285 110.369 39.5084C110.011 39.7287 109.586 39.8388 109.093 39.8388ZM109.093 39.0631C109.607 39.0631 109.99 38.8917 110.241 38.549C110.491 38.2063 110.617 37.7626 110.617 37.2179C110.617 36.6579 110.49 36.2126 110.236 35.8822C109.982 35.5486 109.601 35.3818 109.093 35.3818C108.747 35.3818 108.463 35.4599 108.239 35.6159C108.016 35.772 107.849 35.9877 107.739 36.2631C107.629 36.5385 107.574 36.8568 107.574 37.2179C107.574 37.7748 107.702 38.2216 107.959 38.5582C108.216 38.8948 108.594 39.0631 109.093 39.0631Z" fill="#2D3748"/>
<path d="M112.491 39.7011V34.7438H114.602C114.727 34.7438 114.862 34.7515 115.006 34.7668C115.153 34.779 115.286 34.802 115.405 34.8356C115.671 34.906 115.89 35.0513 116.062 35.2717C116.236 35.4889 116.323 35.7643 116.323 36.0979C116.323 36.2846 116.294 36.4467 116.236 36.5844C116.181 36.7222 116.101 36.8415 115.997 36.9425C115.951 36.9884 115.901 37.0297 115.846 37.0664C115.791 37.1031 115.736 37.1322 115.681 37.1536C115.788 37.172 115.896 37.2133 116.007 37.2776C116.181 37.3724 116.317 37.5055 116.415 37.6769C116.516 37.8483 116.567 38.0671 116.567 38.3333C116.567 38.6699 116.485 38.9484 116.323 39.1687C116.161 39.3859 115.938 39.5359 115.653 39.6185C115.534 39.6522 115.402 39.6751 115.258 39.6874C115.115 39.6965 114.975 39.7011 114.841 39.7011H112.491ZM113.317 39.0356H114.795C114.859 39.0356 114.936 39.0295 115.024 39.0172C115.116 39.005 115.197 38.9897 115.268 38.9713C115.427 38.9254 115.541 38.8397 115.612 38.7143C115.685 38.5888 115.722 38.4526 115.722 38.3057C115.722 38.1099 115.667 37.9508 115.557 37.8284C115.45 37.706 115.307 37.6295 115.13 37.5989C115.066 37.5805 114.995 37.5698 114.919 37.5667C114.845 37.5637 114.779 37.5621 114.721 37.5621H113.317V39.0356ZM113.317 36.8874H114.547C114.633 36.8874 114.723 36.8828 114.818 36.8736C114.913 36.8614 114.995 36.8415 115.066 36.814C115.206 36.7619 115.309 36.6763 115.373 36.5569C115.44 36.4345 115.474 36.3014 115.474 36.1576C115.474 35.9984 115.437 35.8592 115.364 35.7399C115.294 35.6175 115.185 35.5333 115.038 35.4874C114.94 35.4507 114.83 35.4308 114.708 35.4277C114.588 35.4216 114.512 35.4186 114.478 35.4186H113.317V36.8874Z" fill="#2D3748"/>
<path d="M117.489 39.7011L117.484 34.7438H118.306V36.5385H119.063C119.207 36.5385 119.354 36.5416 119.504 36.5477C119.654 36.5538 119.784 36.5676 119.894 36.589C120.151 36.6411 120.376 36.7283 120.569 36.8507C120.761 36.9731 120.911 37.1383 121.018 37.3464C121.126 37.5545 121.179 37.8131 121.179 38.1221C121.179 38.5505 121.067 38.8902 120.844 39.1411C120.624 39.389 120.335 39.5543 119.976 39.6369C119.854 39.6644 119.713 39.6828 119.554 39.692C119.398 39.6981 119.25 39.7011 119.109 39.7011H117.489ZM118.306 39.0264H119.123C119.215 39.0264 119.317 39.0233 119.43 39.0172C119.543 39.0111 119.644 38.9958 119.733 38.9713C119.889 38.9254 120.029 38.8351 120.151 38.7005C120.276 38.5658 120.339 38.3731 120.339 38.1221C120.339 37.8682 120.278 37.6723 120.156 37.5346C120.036 37.3969 119.879 37.3066 119.683 37.2638C119.594 37.2424 119.501 37.2286 119.403 37.2225C119.305 37.2164 119.211 37.2133 119.123 37.2133H118.306V39.0264ZM121.748 39.7011V34.7438H122.565V39.7011H121.748Z" fill="#2D3748"/>
<path d="M125.988 34.1655C125.759 34.1655 125.549 34.1088 125.359 33.9956C125.17 33.8824 125.018 33.7325 124.905 33.5458C124.792 33.3561 124.735 33.1449 124.735 32.9124H125.396C125.396 33.0745 125.454 33.2138 125.571 33.3301C125.687 33.4463 125.826 33.5045 125.988 33.5045C126.154 33.5045 126.293 33.4463 126.406 33.3301C126.522 33.2138 126.58 33.0745 126.58 32.9124H127.241C127.241 33.1449 127.185 33.3561 127.072 33.5458C126.961 33.7325 126.81 33.8824 126.617 33.9956C126.427 34.1088 126.218 34.1655 125.988 34.1655ZM127.912 34.7438V39.7011H127.122V36.0474L124.524 39.7011H123.849V34.7438H124.639V38.3471L127.241 34.7438H127.912Z" fill="#2D3748"/>
<path d="M133.05 39.8434C132.582 39.8404 132.182 39.7394 131.852 39.5405C131.521 39.3385 131.264 39.0432 131.081 38.6546C130.897 38.266 130.795 37.7901 130.773 37.2271C130.761 36.967 130.764 36.6808 130.782 36.3687C130.804 36.0566 130.838 35.7567 130.883 35.469C130.932 35.1814 130.994 34.9442 131.067 34.7576C131.15 34.5342 131.266 34.3276 131.416 34.1379C131.569 33.9451 131.74 33.786 131.93 33.6605C132.123 33.529 132.338 33.4264 132.577 33.353C132.816 33.2796 133.065 33.223 133.325 33.1832C133.589 33.1403 133.852 33.1036 134.115 33.073C134.378 33.0393 134.629 32.9996 134.868 32.9537L134.95 33.6881C134.782 33.7248 134.583 33.7569 134.354 33.7845C134.124 33.809 133.885 33.838 133.637 33.8717C133.393 33.9053 133.157 33.9528 132.931 34.014C132.707 34.0721 132.514 34.1532 132.352 34.2573C132.114 34.4011 131.93 34.6168 131.801 34.9045C131.676 35.1891 131.599 35.5088 131.572 35.8638C131.762 35.57 132.008 35.3543 132.311 35.2166C132.614 35.0789 132.937 35.01 133.279 35.01C133.723 35.01 134.106 35.1141 134.427 35.3222C134.748 35.5272 134.995 35.8102 135.166 36.1713C135.34 36.5324 135.428 36.944 135.428 37.4061C135.428 37.8957 135.33 38.3241 135.134 38.6913C134.938 39.0585 134.661 39.3431 134.303 39.5451C133.948 39.747 133.53 39.8465 133.05 39.8434ZM133.1 39.0677C133.581 39.0677 133.945 38.9193 134.193 38.6225C134.441 38.3226 134.565 37.9248 134.565 37.429C134.565 36.9211 134.436 36.5217 134.179 36.231C133.922 35.9372 133.561 35.7904 133.096 35.7904C132.625 35.7904 132.264 35.9372 132.013 36.231C131.765 36.5217 131.641 36.9211 131.641 37.429C131.641 37.9401 131.766 38.3409 132.017 38.6316C132.268 38.9223 132.629 39.0677 133.1 39.0677Z" fill="#2D3748"/>
<path d="M138.552 39.8388C138.06 39.8388 137.634 39.7271 137.276 39.5038C136.921 39.2804 136.647 38.9713 136.455 38.5766C136.262 38.1818 136.165 37.7289 136.165 37.2179C136.165 36.6977 136.263 36.2417 136.459 35.85C136.655 35.4583 136.932 35.1539 137.29 34.9366C137.648 34.7163 138.069 34.6061 138.552 34.6061C139.048 34.6061 139.475 34.7178 139.833 34.9412C140.191 35.1615 140.465 35.469 140.655 35.8638C140.847 36.2555 140.944 36.7069 140.944 37.2179C140.944 37.735 140.847 38.191 140.655 38.5857C140.462 38.9774 140.186 39.285 139.828 39.5084C139.47 39.7287 139.045 39.8388 138.552 39.8388ZM138.552 39.0631C139.066 39.0631 139.449 38.8917 139.7 38.549C139.951 38.2063 140.076 37.7626 140.076 37.2179C140.076 36.6579 139.949 36.2126 139.695 35.8822C139.441 35.5486 139.06 35.3818 138.552 35.3818C138.206 35.3818 137.922 35.4599 137.699 35.6159C137.475 35.772 137.308 35.9877 137.198 36.2631C137.088 36.5385 137.033 36.8568 137.033 37.2179C137.033 37.7748 137.161 38.2216 137.419 38.5582C137.676 38.8948 138.053 39.0631 138.552 39.0631Z" fill="#2D3748"/>
<path d="M143.16 39.7011V35.4874H141.434V34.7438H145.702V35.4874H143.977V39.7011H143.16Z" fill="#2D3748"/>
</g>
</svg>
