<svg width="40" height="40" viewBox="0 0 40 40" fill="none" xmlns="http://www.w3.org/2000/svg">
<path fill-rule="evenodd" clip-rule="evenodd" d="M24.0781 27.2951L33.8229 17.5795C35.2263 16.1804 35.928 15.4808 36.2976 14.5911C36.6672 13.7015 36.6672 12.7121 36.6672 10.7334V9.78812C36.6672 6.74538 36.6672 5.22401 35.7191 4.27875C34.771 3.3335 33.245 3.3335 30.1931 3.3335H29.245C27.2603 3.3335 26.268 3.3335 25.3757 3.70199C24.4834 4.07049 23.7817 4.77008 22.3783 6.16926L12.6335 15.8848C10.9936 17.5197 9.97684 18.5335 9.5831 19.5126C9.45869 19.822 9.39648 20.1279 9.39648 20.4489C9.39648 21.7857 10.4755 22.8615 12.6335 25.013L12.9235 25.3022L16.3211 21.854C16.8056 21.3622 17.597 21.3564 18.0888 21.8409C18.5805 22.3254 18.5864 23.1168 18.1019 23.6086L14.694 27.0673L14.9224 27.2951C17.0804 29.4466 18.1594 30.5224 19.5003 30.5224C19.7965 30.5224 20.08 30.4699 20.3652 30.3648C21.3706 29.9945 22.3969 28.9712 24.0781 27.2951ZM28.6561 15.8855C27.392 17.1458 25.3424 17.1458 24.0783 15.8855C22.8142 14.6252 22.8142 12.5817 24.0783 11.3214C25.3424 10.0611 27.392 10.0611 28.6561 11.3214C29.9203 12.5817 29.9203 14.6252 28.6561 15.8855Z" fill="#4C9AFF"/>
<g opacity="0.5">
<path d="M15.0568 9.93841L10.8182 14.1643C10.0392 14.941 9.32447 15.6535 8.76008 16.2976C8.39763 16.7112 8.03543 17.1639 7.72862 17.6642L7.68732 17.623C7.60893 17.5449 7.56968 17.5057 7.53032 17.4675C6.7936 16.7527 5.92702 16.1844 4.97694 15.7929C4.92617 15.772 4.87464 15.7516 4.77158 15.7108L4.1405 15.4607C3.28556 15.1219 3.05771 14.0213 3.70825 13.3728C5.57526 11.5114 7.81687 9.27656 8.89869 8.8277C9.85276 8.43184 10.8834 8.30013 11.8774 8.44703C12.7882 8.58163 13.6498 9.04946 15.0568 9.93841Z" fill="#4C9AFF"/>
<path d="M22.2942 32.1886C22.6357 32.5353 22.8626 32.7802 23.0676 33.0418C23.3382 33.387 23.5801 33.7537 23.791 34.1382C24.0284 34.571 24.2127 35.0334 24.5813 35.958C24.8814 36.7108 25.8783 36.9098 26.4573 36.3325L26.5973 36.1928C28.4643 34.3314 30.7058 32.0965 31.1561 31.0179C31.5531 30.0667 31.6852 29.0392 31.5379 28.0482C31.4029 27.1402 30.9338 26.2813 30.0424 24.8788L25.7896 29.1188C24.9929 29.9132 24.2623 30.6416 23.6016 31.2122C23.2057 31.5542 22.7725 31.896 22.2942 32.1886Z" fill="#4C9AFF"/>
</g>
</svg>
