<svg width="40" height="40" viewBox="0 0 40 40" fill="none" xmlns="http://www.w3.org/2000/svg">
<g opacity="0.5">
<path d="M36.6655 21.3624L35.9847 20.6815C34.5202 19.2171 32.1458 19.2171 30.6814 20.6815L29.3456 22.0173C28.8127 20.5953 27.441 19.5832 25.833 19.5832C23.7619 19.5832 22.083 21.2621 22.083 23.3332V26.2729C21.2665 26.3637 20.4741 26.7221 19.848 27.3482C18.3836 28.8127 18.3836 31.187 19.848 32.6515L20.5297 33.3332H16.6663C10.3809 33.3332 7.23825 33.3332 5.28563 31.3805C3.33301 29.4279 3.33301 26.2852 3.33301 19.9998C3.33301 19.2633 3.33615 17.3199 3.33929 16.6665H36.6663C36.6695 17.3199 36.6663 19.2633 36.6663 19.9998C36.6663 20.4714 36.6663 20.9253 36.6655 21.3624Z" fill="#4C9AFF"/>
</g>
<path d="M8.75 26.6665C8.75 25.9761 9.30964 25.4165 10 25.4165H16.6667C17.357 25.4165 17.9167 25.9761 17.9167 26.6665C17.9167 27.3569 17.357 27.9165 16.6667 27.9165H10C9.30964 27.9165 8.75 27.3569 8.75 26.6665Z" fill="#4C9AFF"/>
<path d="M16.6577 6.6665H23.3416C29.6432 6.6665 32.794 6.6665 34.7517 8.52614C36.1612 9.8651 36.5558 11.7916 36.6663 14.9998V16.6665H3.33301V14.9998C3.44351 11.7916 3.83817 9.8651 5.24769 8.52614C7.20535 6.6665 10.3561 6.6665 16.6577 6.6665Z" fill="#4C9AFF"/>
<path d="M32.4494 22.4496C32.9376 21.9615 33.7291 21.9615 34.2172 22.4496L37.5506 25.7829C38.0387 26.2711 38.0387 27.0626 37.5506 27.5507C37.0624 28.0389 36.2709 28.0389 35.7828 27.5507L34.5833 26.3513V33.3335C34.5833 34.0239 34.0237 34.5835 33.3333 34.5835C32.643 34.5835 32.0833 34.0239 32.0833 33.3335V26.3513L30.8839 27.5507C30.3957 28.0389 29.6043 28.0389 29.1161 27.5507C28.628 27.0626 28.628 26.2711 29.1161 25.7829L32.4494 22.4496Z" fill="#4C9AFF"/>
<path fill-rule="evenodd" clip-rule="evenodd" d="M25.8333 22.0835C26.5237 22.0835 27.0833 22.6431 27.0833 23.3335V30.3157L28.2828 29.1163C28.7709 28.6281 29.5624 28.6281 30.0506 29.1163C30.5387 29.6044 30.5387 30.3959 30.0506 30.884L26.7172 34.2174C26.2291 34.7055 25.4376 34.7055 24.9494 34.2174L21.6161 30.884C21.128 30.3959 21.128 29.6044 21.6161 29.1163C22.1043 28.6281 22.8957 28.6281 23.3839 29.1163L24.5833 30.3157V23.3335C24.5833 22.6431 25.143 22.0835 25.8333 22.0835Z" fill="#4C9AFF"/>
</svg>
