<svg width="40" height="40" viewBox="0 0 40 40" fill="none" xmlns="http://www.w3.org/2000/svg">
<path opacity="0.5" d="M32.8605 33.9372C35.2381 32.6408 36.6663 30.9787 36.6663 29.1665C36.6663 27.2456 35.0616 25.4934 32.4225 24.1665C29.3707 22.6321 24.9358 21.6665 19.9997 21.6665C15.0636 21.6665 10.6286 22.6321 7.57686 24.1665C4.93775 25.4934 3.33301 27.2456 3.33301 29.1665C3.33301 31.0874 4.93775 32.8396 7.57686 34.1665C10.6286 35.7009 15.0636 36.6665 19.9997 36.6665C25.1773 36.6665 29.8036 35.6041 32.8605 33.9372Z" fill="#4C9AFF"/>
<path fill-rule="evenodd" clip-rule="evenodd" d="M8.33301 14.1912C8.33301 8.19467 13.5564 3.3335 19.9997 3.3335C26.443 3.3335 31.6663 8.19467 31.6663 14.1912C31.6663 20.1408 27.9427 27.0834 22.1331 29.5661C20.7788 30.1449 19.2205 30.1449 17.8662 29.5661C12.0566 27.0834 8.33301 20.1408 8.33301 14.1912ZM19.9997 18.3335C21.8406 18.3335 23.333 16.8411 23.333 15.0002C23.333 13.1592 21.8406 11.6668 19.9997 11.6668C18.1587 11.6668 16.6663 13.1592 16.6663 15.0002C16.6663 16.8411 18.1587 18.3335 19.9997 18.3335Z" fill="#4C9AFF"/>
</svg>
