<svg width="40" height="40" viewBox="0 0 40 40" fill="none" xmlns="http://www.w3.org/2000/svg">
<circle opacity="0.5" cx="19.9997" cy="20.0002" r="16.6667" fill="#4C9AFF"/>
<path d="M23.2111 23.8362C23.6194 23.5177 23.9898 23.1474 24.7305 22.4067L33.9644 13.1727C34.1876 12.9495 34.0855 12.565 33.7872 12.4615C32.6972 12.0834 31.2794 11.3734 29.9531 10.0471C28.6268 8.72079 27.9168 7.30293 27.5387 6.21298C27.4352 5.9147 27.0507 5.81253 26.8274 6.03577L17.5935 15.2697L17.5935 15.2697C16.8528 16.0104 16.4824 16.3807 16.1639 16.7891C15.7882 17.2708 15.4661 17.792 15.2033 18.3434C14.9805 18.8109 14.8149 19.3078 14.4836 20.3016L14.0556 21.5856L13.375 23.6274L12.7369 25.5418C12.5739 26.0309 12.7011 26.57 13.0656 26.9345C13.4301 27.299 13.9693 27.4263 14.4583 27.2633L16.3728 26.6251L18.4146 25.9445L19.6986 25.5165L19.6986 25.5165C20.6924 25.1853 21.1892 25.0197 21.6567 24.7969C22.2082 24.534 22.7294 24.2119 23.2111 23.8362Z" fill="#4C9AFF"/>
<path d="M36.8555 10.2816C38.8264 8.31077 38.8264 5.11544 36.8555 3.14462C34.8847 1.1738 31.6894 1.1738 29.7186 3.14462L29.4217 3.44148C29.3258 3.53743 29.2778 3.58541 29.2313 3.64952C29.1122 3.81384 29.0371 4.05313 29.0411 4.25605C29.0426 4.33523 29.0541 4.3991 29.077 4.52684C29.122 4.77768 29.2055 5.14441 29.3573 5.58201C29.6609 6.45716 30.2343 7.60597 31.3142 8.68591C32.3942 9.76586 33.543 10.3392 34.4181 10.6429C34.8558 10.7947 35.2225 10.8781 35.4733 10.9231C35.6011 10.9461 35.6649 10.9575 35.7441 10.9591C35.947 10.963 36.1863 10.888 36.3506 10.7689C36.4147 10.7224 36.4627 10.6744 36.5586 10.5785L36.5587 10.5785L36.8555 10.2816Z" fill="#4C9AFF"/>
</svg>
