<svg width="40" height="40" viewBox="0 0 40 40" fill="none" xmlns="http://www.w3.org/2000/svg">
<path fill-rule="evenodd" clip-rule="evenodd" d="M36.6663 25.0002V30.0002C36.6663 33.1429 36.6663 34.7142 35.69 35.6905C34.7137 36.6668 33.1424 36.6668 29.9997 36.6668C26.857 36.6668 25.2856 36.6668 24.3093 35.6905C23.333 34.7142 23.333 33.1429 23.333 30.0002V25.0002C23.333 21.8575 23.333 20.2861 24.3093 19.3098C25.2856 18.3335 26.857 18.3335 29.9997 18.3335C33.1424 18.3335 34.7137 18.3335 35.69 19.3098C36.6663 20.2861 36.6663 21.8575 36.6663 25.0002ZM27.083 33.3335C27.083 32.6431 27.6427 32.0835 28.333 32.0835H31.6663C32.3567 32.0835 32.9163 32.6431 32.9163 33.3335C32.9163 34.0239 32.3567 34.5835 31.6663 34.5835H28.333C27.6427 34.5835 27.083 34.0239 27.083 33.3335Z" fill="#4C9AFF"/>
<path d="M13.3326 28.3332C8.61852 28.3332 6.26149 28.3332 4.79703 26.8687C3.84819 25.9199 3.45063 24.5963 3.33301 22.4998V21.6665H20.86V22.4998C20.8324 23.2274 20.8325 24.0191 20.8325 24.8507V30.149C20.8324 31.5917 20.8322 32.9145 20.9769 33.9905C21.1362 35.1755 21.511 36.4279 22.5411 37.458L22.5835 37.4998H13.3326C12.6422 37.4998 12.0826 36.9402 12.0826 36.2498C12.0826 35.5595 12.6422 34.9998 13.3326 34.9998H18.7492V28.3332H13.3326Z" fill="#4C9AFF"/>
<path opacity="0.5" d="M16.6663 3.3335H23.333C29.6183 3.3335 32.761 3.3335 34.7137 5.28612C36.6663 7.23874 36.6663 10.3814 36.6663 16.6668V16.8974C35.8191 16.3415 34.8854 16.0982 33.9903 15.9778C32.9143 15.8332 31.5915 15.8333 30.1488 15.8335H29.8505C28.4077 15.8333 27.085 15.8332 26.0089 15.9778C24.824 16.1371 23.5716 16.512 22.5415 17.542C21.5623 18.5213 21.1752 19.7014 21.0025 20.8335V21.6668H3.33295L3.33301 20.8335C3.32214 20.0826 3.33295 19.2529 3.33295 18.3335V16.6668C3.33295 10.3814 3.33295 7.23874 5.28557 5.28612C7.2382 3.3335 10.3809 3.3335 16.6663 3.3335Z" fill="#4C9AFF"/>
</svg>
