<svg width="40" height="40" viewBox="0 0 40 40" fill="none" xmlns="http://www.w3.org/2000/svg">
<path opacity="0.5" fill-rule="evenodd" clip-rule="evenodd" d="M3.33301 20.0002C3.33301 10.7954 10.7949 3.3335 19.9997 3.3335C29.2044 3.3335 36.6663 10.7954 36.6663 20.0002C36.6663 29.2049 29.2044 36.6668 19.9997 36.6668C10.7949 36.6668 3.33301 29.2049 3.33301 20.0002ZM18.7497 8.3335C18.7497 7.64314 19.3093 7.0835 19.9997 7.0835C27.1334 7.0835 32.9163 12.8665 32.9163 20.0002C32.9163 27.1338 27.1334 32.9168 19.9997 32.9168C12.866 32.9168 7.08301 27.1338 7.08301 20.0002C7.08301 19.3098 7.64265 18.7502 8.33301 18.7502C9.02336 18.7502 9.58301 19.3098 9.58301 20.0002C9.58301 25.7531 14.2467 30.4168 19.9997 30.4168C25.7526 30.4168 30.4163 25.7531 30.4163 20.0002C30.4163 14.2472 25.7526 9.5835 19.9997 9.5835C19.3093 9.5835 18.7497 9.02385 18.7497 8.3335ZM19.9997 12.0835C19.3093 12.0835 18.7497 12.6431 18.7497 13.3335C18.7497 14.0239 19.3093 14.5835 19.9997 14.5835C22.9912 14.5835 25.4163 17.0086 25.4163 20.0002C25.4163 22.9917 22.9912 25.4168 19.9997 25.4168C19.3093 25.4168 18.7497 25.9765 18.7497 26.6668C18.7497 27.3572 19.3093 27.9168 19.9997 27.9168C24.3719 27.9168 27.9163 24.3724 27.9163 20.0002C27.9163 15.6279 24.3719 12.0835 19.9997 12.0835Z" fill="#4C9AFF"/>
<path d="M18.7497 8.3335C18.7497 7.64314 19.3093 7.0835 19.9997 7.0835C27.1334 7.0835 32.9163 12.8665 32.9163 20.0002C32.9163 27.1338 27.1334 32.9168 19.9997 32.9168C12.866 32.9168 7.08301 27.1338 7.08301 20.0002C7.08301 19.3098 7.64265 18.7502 8.33301 18.7502C9.02336 18.7502 9.58301 19.3098 9.58301 20.0002C9.58301 25.7531 14.2467 30.4168 19.9997 30.4168C25.7526 30.4168 30.4163 25.7531 30.4163 20.0002C30.4163 14.2472 25.7526 9.5835 19.9997 9.5835C19.3093 9.5835 18.7497 9.02385 18.7497 8.3335Z" fill="#4C9AFF"/>
<path d="M19.9997 12.0835C19.3093 12.0835 18.7497 12.6431 18.7497 13.3335C18.7497 14.0239 19.3093 14.5835 19.9997 14.5835C22.9912 14.5835 25.4163 17.0086 25.4163 20.0002C25.4163 22.9917 22.9912 25.4168 19.9997 25.4168C19.3093 25.4168 18.7497 25.9765 18.7497 26.6668C18.7497 27.3572 19.3093 27.9168 19.9997 27.9168C24.3719 27.9168 27.9163 24.3724 27.9163 20.0002C27.9163 15.6279 24.3719 12.0835 19.9997 12.0835Z" fill="#4C9AFF"/>
</svg>
